<svg width="36" height="36" viewBox="0 0 36 36" fill="none" xmlns="http://www.w3.org/2000/svg">
<path fill-rule="evenodd" clip-rule="evenodd" d="M23.4848 23.5155C27.9575 22.6179 31.3266 18.6679 31.3266 13.931C31.3266 8.53202 26.9499 4.15527 21.5509 4.15527C16.8139 4.15527 12.8639 7.52443 11.9664 11.9972C12.5915 11.8717 13.2382 11.8059 13.9003 11.8059C19.2993 11.8059 23.676 16.1826 23.676 21.5816C23.676 22.2437 23.6102 22.8903 23.4848 23.5155ZM21.9893 23.6971C22.1655 23.0214 22.2593 22.3125 22.2593 21.5816C22.2593 16.9651 18.5168 13.2227 13.9003 13.2227C13.1694 13.2227 12.4605 13.3165 11.7848 13.4927C11.7784 13.638 11.7751 13.7841 11.7751 13.931C11.7751 19.33 16.1519 23.7067 21.5509 23.7067C21.6978 23.7067 21.8439 23.7035 21.9893 23.6971Z" fill="#F3520D"/>
<path fill-rule="evenodd" clip-rule="evenodd" d="M13.9002 30.7907C18.9862 30.7907 23.1093 26.6676 23.1093 21.5816C23.1093 16.4956 18.9862 12.3726 13.9002 12.3726C8.81424 12.3726 4.69122 16.4956 4.69122 21.5816C4.69122 26.6676 8.81424 30.7907 13.9002 30.7907ZM13.9002 31.3574C19.2992 31.3574 23.676 26.9806 23.676 21.5816C23.676 16.1827 19.2992 11.8059 13.9002 11.8059C8.50126 11.8059 4.12451 16.1827 4.12451 21.5816C4.12451 26.9806 8.50126 31.3574 13.9002 31.3574Z" fill="#F3520D"/>
<path fill-rule="evenodd" clip-rule="evenodd" d="M14.964 7.39474L7.39469 14.964C3.75334 18.6054 3.75334 24.5091 7.39469 28.1505C11.036 31.7918 16.9398 31.7918 20.5812 28.1505L28.1504 20.5812C31.7918 16.9399 31.7918 11.0361 28.1504 7.39473C24.5091 3.75338 18.6053 3.75339 14.964 7.39474ZM6.99396 14.5633C3.1313 18.4259 3.1313 24.6886 6.99396 28.5512C10.8566 32.4139 17.1192 32.4139 20.9819 28.5512L28.5512 20.9819C32.4138 17.1193 32.4138 10.8567 28.5512 6.994C24.6885 3.13134 18.4259 3.13135 14.5632 6.99401L6.99396 14.5633Z" fill="#F3520D"/>
</svg>
