<svg width="113" height="47" viewBox="0 0 113 47" fill="none" xmlns="http://www.w3.org/2000/svg">
<path fill-rule="evenodd" clip-rule="evenodd" d="M30.6934 30.7334C36.539 29.5604 40.9422 24.3979 40.9422 18.2071C40.9422 11.1509 35.2221 5.43079 28.1659 5.43079C21.975 5.43079 16.8126 9.83407 15.6396 15.6796C16.4566 15.5157 17.3018 15.4297 18.1671 15.4297C25.2233 15.4297 30.9434 21.1498 30.9434 28.206C30.9434 29.0712 30.8574 29.9164 30.6934 30.7334ZM28.7389 30.9707C28.9692 30.0877 29.0918 29.1611 29.0918 28.206C29.0918 22.1724 24.2006 17.2813 18.1671 17.2813C17.2119 17.2813 16.2853 17.4039 15.4023 17.6342C15.3939 17.8241 15.3896 18.0151 15.3896 18.2071C15.3896 25.2632 21.1098 30.9834 28.1659 30.9834C28.3579 30.9834 28.5489 30.9791 28.7389 30.9707Z" fill="#F3520D"/>
<path fill-rule="evenodd" clip-rule="evenodd" d="M18.1674 40.2417C24.8145 40.2417 30.203 34.8532 30.203 28.2061C30.203 21.559 24.8145 16.1705 18.1674 16.1705C11.5203 16.1705 6.13177 21.559 6.13177 28.2061C6.13177 34.8532 11.5203 40.2417 18.1674 40.2417ZM18.1674 40.9824C25.2236 40.9824 30.9437 35.2622 30.9437 28.2061C30.9437 21.1499 25.2236 15.4298 18.1674 15.4298C11.1113 15.4298 5.39111 21.1499 5.39111 28.2061C5.39111 35.2622 11.1113 40.9824 18.1674 40.9824Z" fill="#F3520D"/>
<path fill-rule="evenodd" clip-rule="evenodd" d="M19.557 9.6644L9.66441 19.557C4.90539 24.316 4.90539 32.0319 9.66441 36.7909C14.4234 41.5499 22.1393 41.5499 26.8983 36.7909L36.7909 26.8983C41.5499 22.1393 41.5499 14.4234 36.7909 9.66439C32.0319 4.90537 24.316 4.90538 19.557 9.6644ZM9.14069 19.0333C4.09242 24.0815 4.09242 32.2664 9.14068 37.3146C14.1889 42.3629 22.3738 42.3629 27.4221 37.3146L37.3146 27.422C42.3629 22.3738 42.3629 14.1889 37.3146 9.14067C32.2664 4.09241 24.0815 4.09242 19.0333 9.14068L9.14069 19.0333Z" fill="#F3520D"/>
<path d="M51.1934 13.7688C51.1934 13.4866 51.4221 13.2579 51.7043 13.2579L55.4381 13.0876C55.7202 13.0876 55.949 13.3163 55.949 13.5985V29.1352C55.949 29.4173 56.1777 29.6461 56.4599 29.6461H65.5834C65.8655 29.6461 66.0943 29.8748 66.0943 30.157V33.0665C66.0943 33.3486 65.8655 33.5774 65.5834 33.5774H51.7043C51.4221 33.5774 51.1934 33.3486 51.1934 33.0665V13.7688Z" fill="black"/>
<path d="M69.1986 18.9882C69.1986 18.706 69.4273 18.4773 69.7095 18.4773H72.8726C73.1548 18.4773 73.3835 18.706 73.3835 18.9882V33.0665C73.3835 33.3486 73.1548 33.5774 72.8726 33.5774H69.7095C69.4273 33.5774 69.1986 33.3486 69.1986 33.0665V18.9882ZM71.2911 16.2108C70.5513 16.2108 69.9383 15.9783 69.4522 15.5134C68.9872 15.0272 68.7547 14.4143 68.7547 13.6745C68.7547 12.9347 68.9872 12.3324 69.4522 11.8674C69.9383 11.3812 70.5513 11.1382 71.2911 11.1382C72.0308 11.1382 72.6332 11.3812 73.0982 11.8674C73.5843 12.3324 73.8274 12.9347 73.8274 13.6745C73.8274 14.4143 73.5843 15.0272 73.0982 15.5134C72.6332 15.9783 72.0308 16.2108 71.2911 16.2108Z" fill="black"/>
<path d="M83.2971 33.7676C82.3249 33.7676 81.49 33.6831 80.7925 33.514C80.095 33.3238 79.5138 33.0067 79.0488 32.5629C78.6049 32.119 78.2773 31.5272 78.0659 30.7874C77.8546 30.0265 77.7489 29.086 77.7489 27.9658V11.8954C77.7489 11.6133 77.9776 11.3845 78.2598 11.3845L81.4229 11.2142C81.7051 11.2142 81.9338 11.443 81.9338 11.7251V27.4585C81.9338 28.5364 82.0924 29.2656 82.4094 29.6461C82.7264 30.0265 83.3394 30.2168 84.2482 30.2168C84.4807 30.2168 84.6815 30.2168 84.8506 30.2168C85.12 30.1831 85.3579 30.3931 85.3579 30.6646V33.2736C85.3579 33.508 85.1967 33.7083 84.9627 33.7226C84.8169 33.7315 84.6421 33.7359 84.4385 33.7359C83.9946 33.7571 83.6142 33.7676 83.2971 33.7676Z" fill="black"/>
<path d="M92.8108 33.7676C91.8386 33.7676 91.0037 33.6831 90.3062 33.514C89.6087 33.3238 89.0275 33.0067 88.5625 32.5629C88.1186 32.119 87.791 31.5272 87.5796 30.7874C87.3683 30.0265 87.2626 29.086 87.2626 27.9658V11.8954C87.2626 11.6133 87.4914 11.3845 87.7735 11.3845L90.9366 11.2142C91.2188 11.2142 91.4475 11.443 91.4475 11.7251V27.4585C91.4475 28.5364 91.6061 29.2656 91.9231 29.6461C92.2402 30.0265 92.8531 30.2168 93.7619 30.2168C93.9944 30.2168 94.1952 30.2168 94.3643 30.2168C94.6337 30.1831 94.8716 30.3931 94.8716 30.6646V33.2736C94.8716 33.508 94.7104 33.7083 94.4764 33.7226C94.3306 33.7315 94.1559 33.7359 93.9522 33.7359C93.5083 33.7571 93.1279 33.7676 92.8108 33.7676Z" fill="black"/>
<path d="M104.598 34.1281C103.457 34.1281 102.369 33.9591 101.333 33.6209C100.318 33.2616 99.4306 32.7226 98.6697 32.004C97.9088 31.2853 97.3064 30.3871 96.8626 29.3091C96.4187 28.2312 96.1968 27.1333 96.1968 25.6749V25.0409C96.1968 23.667 96.4187 22.6326 96.8626 21.5969C97.3064 20.5612 97.9088 19.6946 98.6697 18.9972C99.4306 18.2997 100.318 17.7818 101.333 17.4437C102.369 17.0843 103.457 16.9047 104.598 16.9047C105.74 16.9047 106.818 17.0843 107.832 17.4437C108.847 17.7818 109.734 18.2997 110.495 18.9972C111.277 19.6946 111.89 20.5612 112.334 21.5969C112.778 22.6326 113 23.667 113 25.0409V25.6749C113 27.1122 112.778 28.1995 112.334 29.2774C111.89 30.3554 111.277 31.2536 110.495 31.9723C109.734 32.6909 108.847 33.2299 107.832 33.5892C106.818 33.9485 105.74 34.1281 104.598 34.1281ZM104.598 30.5773C105.782 30.5773 106.765 30.1546 107.547 29.3091C108.35 28.4637 108.752 27.3658 108.752 25.6749V25.0409C108.752 23.4979 108.35 22.4952 107.547 21.692C106.765 20.8677 105.782 20.4555 104.598 20.4555C103.394 20.4555 102.4 20.8677 101.618 21.692C100.836 22.4952 100.445 23.4979 100.445 25.0409V25.6749C100.445 27.387 100.836 28.4954 101.618 29.3408C102.4 30.1651 103.394 30.5773 104.598 30.5773Z" fill="black"/>
</svg>
