<svg width="22" height="17" viewBox="0 0 22 17" fill="none" xmlns="http://www.w3.org/2000/svg">
<path d="M6.20991 8.39979C6.32297 8.56554 6.53796 8.66887 6.7718 8.66887H10.4129V14.3549C10.4129 14.642 10.7007 14.875 11.0554 14.875C11.41 14.875 11.6978 14.642 11.6978 14.3549V8.66887H15.3389C15.5736 8.66887 15.7886 8.56554 15.9008 8.39979C16.0147 8.23404 16.007 8.03154 15.8828 7.87134L11.5993 2.36773C11.4811 2.21654 11.2763 2.125 11.0554 2.125C10.8344 2.125 10.6297 2.21654 10.5115 2.36773L6.2279 7.87134C6.1628 7.95595 6.12939 8.05235 6.12939 8.14874C6.12939 8.23474 6.1568 8.32142 6.20991 8.39979" fill="#FF5530"/>
</svg>
