<svg width="27" height="27" viewBox="0 0 27 27" fill="none" xmlns="http://www.w3.org/2000/svg">
<rect x="0.25" y="0.25" width="26.5" height="26.5" rx="4.75" stroke="#D3D3D3" stroke-width="0.5"/>
<path d="M18.9775 12.6123C18.9775 15.5738 16.9702 17.9746 14.0087 17.9746C11.1994 17.5445 8.52744 15.2477 8.25293 12.3469C8.25293 9.38544 10.6537 7.25 13.6152 7.25C16.5767 7.25 18.9775 9.65077 18.9775 12.6123Z" fill="#E8E8E8"/>
<path d="M8.25293 12.3469C8.25293 9.38544 10.6537 7.25 13.6152 7.25C16.5767 7.25 18.9775 9.65077 18.9775 12.6123C18.9775 15.5738 16.9702 17.9746 14.0087 17.9746C14.0087 17.9746 11.0713 17.755 8.25293 17.9746C8.38103 15.3575 8.25293 12.3469 8.25293 12.3469Z" fill="#FF4D00"/>
<path fill-rule="evenodd" clip-rule="evenodd" d="M13.6749 16.1756C15.7152 16.1756 17.3692 14.5216 17.3692 12.4813C17.3692 10.4409 15.7152 8.78694 13.6749 8.78694C11.6345 8.78694 9.98051 10.4409 9.98051 12.4813C9.98051 14.5216 11.6345 16.1756 13.6749 16.1756ZM13.6749 16.7613C16.0386 16.7613 17.9548 14.845 17.9548 12.4813C17.9548 10.1175 16.0386 8.20129 13.6749 8.20129C11.3111 8.20129 9.39487 10.1175 9.39487 12.4813C9.39487 14.845 11.3111 16.7613 13.6749 16.7613Z" fill="white" fill-opacity="0.02"/>
<path d="M14.8609 14.9191L14.7671 14.7409C14.5875 14.8222 14.403 14.8823 14.2137 14.921C14.0245 14.9585 13.8248 14.9772 13.6146 14.9772C13.4077 14.9772 13.2096 14.9585 13.0204 14.921C12.8295 14.8823 12.6442 14.8222 12.4646 14.7409L12.3708 14.9191C12.5568 15.0108 12.7509 15.0818 12.953 15.1322C13.1535 15.1826 13.374 15.2078 13.6146 15.2078C13.8568 15.2078 14.079 15.1826 14.2811 15.1322C14.4816 15.0818 14.6749 15.0108 14.8609 14.9191Z" fill="white" fill-opacity="0.02"/>
<path d="M13.4736 11.9216C13.4036 11.9216 13.3435 11.9152 13.2933 11.9025C13.2431 11.8882 13.2012 11.8643 13.1677 11.8309C13.1358 11.7975 13.1122 11.7529 13.097 11.6973C13.0818 11.64 13.0742 11.5692 13.0742 11.4849V10.2754C13.0742 10.2542 13.0906 10.2369 13.1109 10.2369L13.3386 10.2241C13.359 10.2241 13.3754 10.2413 13.3754 10.2626V11.4467C13.3754 11.5279 13.3868 11.5827 13.4097 11.6114C13.4325 11.64 13.4766 11.6543 13.542 11.6543C13.5588 11.6543 13.5732 11.6543 13.5854 11.6543C13.6048 11.6518 13.6219 11.6676 13.6219 11.688V11.8844C13.6219 11.902 13.6103 11.9171 13.5935 11.9182C13.583 11.9188 13.5704 11.9192 13.5557 11.9192C13.5238 11.9208 13.4964 11.9216 13.4736 11.9216Z" fill="white" fill-opacity="0.02"/>
<path d="M12.0129 12.9843C11.9308 12.9843 11.8524 12.9716 11.7779 12.9461C11.7048 12.9191 11.6409 12.8785 11.5861 12.8244C11.5314 12.7704 11.488 12.7028 11.4561 12.6216C11.4241 12.5405 11.4081 12.4579 11.4081 12.3481V12.3004C11.4081 12.197 11.4241 12.1191 11.4561 12.0412C11.488 11.9632 11.5314 11.898 11.5861 11.8455C11.6409 11.793 11.7048 11.754 11.7779 11.7286C11.8524 11.7015 11.9308 11.688 12.0129 11.688C12.0951 11.688 12.1727 11.7015 12.2457 11.7286C12.3188 11.754 12.3827 11.793 12.4375 11.8455C12.4938 11.898 12.5379 11.9632 12.5698 12.0412C12.6018 12.1191 12.6178 12.197 12.6178 12.3004V12.3481C12.6178 12.4563 12.6018 12.5381 12.5698 12.6192C12.5379 12.7004 12.4938 12.768 12.4375 12.8221C12.3827 12.8761 12.3188 12.9167 12.2457 12.9438C12.1727 12.9708 12.0951 12.9843 12.0129 12.9843ZM12.0129 12.7171C12.0981 12.7171 12.1689 12.6853 12.2252 12.6216C12.283 12.558 12.3119 12.4754 12.3119 12.3481V12.3004C12.3119 12.1843 12.283 12.1088 12.2252 12.0483C12.1689 11.9863 12.0981 11.9553 12.0129 11.9553C11.9262 11.9553 11.8547 11.9863 11.7984 12.0483C11.7421 12.1088 11.714 12.1843 11.714 12.3004V12.3481C11.714 12.477 11.7421 12.5604 11.7984 12.624C11.8547 12.686 11.9262 12.7171 12.0129 12.7171Z" fill="white" fill-opacity="0.02"/>
<path d="M13.5316 12.5007C13.5371 12.4802 13.5575 12.4678 13.5771 12.4731L13.84 12.5303C13.8597 12.5355 13.8711 12.5564 13.8656 12.5769L13.5563 13.7312C13.5508 13.7517 13.5623 13.7726 13.5819 13.7778L14.2163 13.9478C14.2359 13.9531 14.2474 13.974 14.2419 13.9945L14.1852 14.206C14.1797 14.2265 14.1594 14.2389 14.1397 14.2336L13.1746 13.975C13.155 13.9698 13.1436 13.9489 13.1491 13.9284L13.5316 12.5007Z" fill="white" fill-opacity="0.02"/>
<path d="M14.1977 11.9216C14.1277 11.9216 14.0676 11.9152 14.0174 11.9025C13.9672 11.8882 13.9254 11.8643 13.8919 11.8309C13.8599 11.7975 13.8364 11.7529 13.8211 11.6973C13.8059 11.64 13.7983 11.5692 13.7983 11.4849V10.2754C13.7983 10.2542 13.8148 10.2369 13.8351 10.2369L14.0628 10.2241C14.0831 10.2241 14.0996 10.2413 14.0996 10.2626V11.4467C14.0996 11.5279 14.111 11.5827 14.1338 11.6114C14.1566 11.64 14.2008 11.6543 14.2662 11.6543C14.2829 11.6543 14.2974 11.6543 14.3096 11.6543C14.329 11.6518 14.3461 11.6676 14.3461 11.688V11.8844C14.3461 11.902 14.3345 11.9171 14.3176 11.9182C14.3071 11.9188 14.2946 11.9192 14.2799 11.9192C14.2479 11.9208 14.2206 11.9216 14.1977 11.9216Z" fill="white" fill-opacity="0.02"/>
<path d="M15.7581 12.0372C15.7678 12.0372 15.7756 12.0508 15.7756 12.0674L15.7756 12.2544C15.7756 12.2711 15.7678 12.2846 15.7581 12.2846L14.6385 12.2846C14.6289 12.2846 14.6211 12.2711 14.6211 12.2544L14.6211 12.0674C14.6211 12.0508 14.6289 12.0372 14.6385 12.0372L15.7581 12.0372Z" fill="white" fill-opacity="0.02"/>
</svg>
