<svg width="18" height="18" viewBox="0 0 18 18" fill="none" xmlns="http://www.w3.org/2000/svg">
<path d="M7.28264 7.65745L9.00014 5.93245L10.7176 7.65745C10.7874 7.72775 10.8703 7.78355 10.9617 7.82162C11.0531 7.8597 11.1511 7.8793 11.2501 7.8793C11.3491 7.8793 11.4472 7.8597 11.5386 7.82162C11.63 7.78355 11.7129 7.72775 11.7826 7.65745C11.8529 7.58773 11.9087 7.50478 11.9468 7.41339C11.9849 7.32199 12.0045 7.22396 12.0045 7.12495C12.0045 7.02595 11.9849 6.92792 11.9468 6.83652C11.9087 6.74513 11.8529 6.66218 11.7826 6.59245L9.53264 4.34245C9.46292 4.27216 9.37997 4.21636 9.28857 4.17829C9.19718 4.14021 9.09915 4.12061 9.00014 4.12061C8.90113 4.12061 8.8031 4.14021 8.71171 4.17829C8.62031 4.21636 8.53736 4.27216 8.46764 4.34245L6.21764 6.59245C6.07641 6.73368 5.99707 6.92523 5.99707 7.12495C5.99707 7.32468 6.07641 7.51623 6.21764 7.65745C6.35887 7.79868 6.55041 7.87802 6.75014 7.87802C6.94987 7.87802 7.14141 7.79868 7.28264 7.65745ZM10.7176 11.0925L9.00014 12.8175L7.28264 11.0925C7.21271 11.0225 7.12969 10.9671 7.03833 10.9292C6.94696 10.8914 6.84903 10.8719 6.75014 10.8719C6.65124 10.8719 6.55332 10.8914 6.46195 10.9292C6.37059 10.9671 6.28757 11.0225 6.21764 11.0925C6.14771 11.1624 6.09224 11.2454 6.05439 11.3368C6.01655 11.4281 5.99707 11.5261 5.99707 11.625C5.99707 11.7238 6.01655 11.8218 6.05439 11.9131C6.09224 12.0045 6.14771 12.0875 6.21764 12.1575L8.46764 14.4075C8.53736 14.4777 8.62031 14.5335 8.71171 14.5716C8.8031 14.6097 8.90113 14.6293 9.00014 14.6293C9.09915 14.6293 9.19718 14.6097 9.28857 14.5716C9.37997 14.5335 9.46292 14.4777 9.53264 14.4075L11.7826 12.1575C11.9239 12.0162 12.0032 11.8247 12.0032 11.625C12.0032 11.4252 11.9239 11.2337 11.7826 11.0925C11.6414 10.9512 11.4499 10.8719 11.2501 10.8719C11.0504 10.8719 10.8589 10.9512 10.7176 11.0925Z" fill="#515151"/>
</svg>
