<svg width="16" height="16" viewBox="0 0 16 16" fill="none" xmlns="http://www.w3.org/2000/svg">
<path d="M13.2827 6.922C13.3332 6.80015 13.3464 6.66607 13.3206 6.53672C13.2949 6.40737 13.2313 6.28856 13.138 6.19533L9.8047 2.862L8.86204 3.80467L11.0574 6H2.6667V7.33333H12.6667C12.7985 7.33337 12.9274 7.2943 13.0371 7.22109C13.1467 7.14787 13.2322 7.04379 13.2827 6.922ZM2.71737 9.078C2.6669 9.19985 2.65371 9.33393 2.67946 9.46328C2.70521 9.59263 2.76875 9.71144 2.86204 9.80467L6.19537 13.138L7.13804 12.1953L4.9427 10H13.3334V8.66667H3.33337C3.20151 8.66654 3.07257 8.70557 2.96291 8.7788C2.85325 8.85202 2.76779 8.95616 2.71737 9.078Z" fill="#747474"/>
</svg>
