<svg width="18" height="18" viewBox="0 0 18 18" fill="none" xmlns="http://www.w3.org/2000/svg">
<path d="M6.75 9H11.25" stroke="#FF5530" stroke-width="1.4" stroke-linecap="round" stroke-linejoin="round"/>
<path d="M11.25 4.5H12C13.1935 4.5 14.3381 4.97411 15.182 5.81802C16.0259 6.66193 16.5 7.80653 16.5 9C16.5 10.1935 16.0259 11.3381 15.182 12.182C14.3381 13.0259 13.1935 13.5 12 13.5H11.25" stroke="#FF5530" stroke-width="1.4" stroke-linecap="round" stroke-linejoin="round"/>
<path d="M6.75 13.5H6C4.80653 13.5 3.66193 13.0259 2.81802 12.182C1.97411 11.3381 1.5 10.1935 1.5 9C1.5 7.80653 1.97411 6.66193 2.81802 5.81802C3.66193 4.97411 4.80653 4.5 6 4.5H6.75" stroke="#FF5530" stroke-width="1.4" stroke-linecap="round" stroke-linejoin="round"/>
</svg>
