<svg width="26" height="26" viewBox="0 0 26 26" fill="none" xmlns="http://www.w3.org/2000/svg">
<path d="M9.75 22.75H5.41667C4.225 22.75 3.25 21.775 3.25 20.5833V5.41667C3.25 4.225 4.225 3.25 5.41667 3.25H9.75C10.9417 3.25 11.9167 4.225 11.9167 5.41667V20.5833C11.9167 21.775 10.9417 22.75 9.75 22.75ZM16.25 22.75H20.5833C21.775 22.75 22.75 21.775 22.75 20.5833V15.1667C22.75 13.975 21.775 13 20.5833 13H16.25C15.0583 13 14.0833 13.975 14.0833 15.1667V20.5833C14.0833 21.775 15.0583 22.75 16.25 22.75ZM22.75 8.66667V5.41667C22.75 4.225 21.775 3.25 20.5833 3.25H16.25C15.0583 3.25 14.0833 4.225 14.0833 5.41667V8.66667C14.0833 9.85833 15.0583 10.8333 16.25 10.8333H20.5833C21.775 10.8333 22.75 9.85833 22.75 8.66667Z" fill="black"/>
</svg>
