<svg width="14" height="11" viewBox="0 0 14 11" fill="none" xmlns="http://www.w3.org/2000/svg">
<path fill-rule="evenodd" clip-rule="evenodd" d="M0 5.69218C0 5.54938 0.052675 5.41243 0.146437 5.31146C0.240199 5.21048 0.367368 5.15375 0.499968 5.15375H12.2922L9.14542 1.76597C9.05154 1.66487 8.99879 1.52774 8.99879 1.38476C8.99879 1.24178 9.05154 1.10466 9.14542 1.00356C9.2393 0.902456 9.36663 0.845657 9.49939 0.845657C9.63216 0.845657 9.75949 0.902456 9.85337 1.00356L13.8531 5.31098C13.8997 5.36099 13.9366 5.42041 13.9618 5.48582C13.987 5.55123 14 5.62136 14 5.69218C14 5.763 13.987 5.83313 13.9618 5.89854C13.9366 5.96396 13.8997 6.02337 13.8531 6.07339L9.85337 10.3808C9.75949 10.4819 9.63216 10.5387 9.49939 10.5387C9.36663 10.5387 9.2393 10.4819 9.14542 10.3808C9.05154 10.2797 8.99879 10.1426 8.99879 9.9996C8.99879 9.85662 9.05154 9.71949 9.14542 9.61839L12.2922 6.23061H0.499968C0.367368 6.23061 0.240199 6.17388 0.146437 6.07291C0.052675 5.97193 0 5.83498 0 5.69218Z" fill="#F3520D"/>
</svg>
