<svg width="19" height="18" viewBox="0 0 19 18" fill="none" xmlns="http://www.w3.org/2000/svg">
<path fill-rule="evenodd" clip-rule="evenodd" d="M9.49999 0C7.37901 0 7.17848 3.54652 5.91574 4.79957C4.65301 6.05263 0.72729 4.61992 0.181861 6.84403C-0.362422 9.06927 3.16912 9.82429 3.60454 11.7334C4.04226 13.6426 1.88461 16.3249 3.7283 17.6598C5.57198 18.9936 7.55661 15.9747 9.49999 15.9747C11.4434 15.9747 13.428 18.9936 15.2717 17.6598C17.1154 16.3249 14.9589 13.6426 15.3954 11.7334C15.832 9.82429 19.3624 9.06927 18.8181 6.84403C18.2738 4.61992 14.347 6.05263 13.0854 4.79957C11.8226 3.54652 11.621 0 9.49999 0Z" fill="#FFF48C"/>
</svg>
