<svg width="26" height="26" viewBox="0 0 26 26" fill="none" xmlns="http://www.w3.org/2000/svg">
<path fill-rule="evenodd" clip-rule="evenodd" d="M10.3549 23.2027C6.37693 23.2027 2.97852 22.6025 2.97852 20.1974C2.97852 17.7924 6.35527 15.6253 10.3549 15.6253C14.3329 15.6253 17.7303 17.7719 17.7303 20.1758C17.7303 22.5798 14.3546 23.2027 10.3549 23.2027Z" stroke="black" stroke-width="1.5" stroke-linecap="round" stroke-linejoin="round"/>
<path fill-rule="evenodd" clip-rule="evenodd" d="M10.3551 12.1954C12.966 12.1954 15.0828 10.0824 15.0828 7.47623C15.0828 4.87007 12.966 2.75702 10.3551 2.75702C7.74431 2.75702 5.62748 4.87007 5.62748 7.47623C5.61773 10.0737 7.72048 12.1868 10.3216 12.1954H10.3551Z" stroke="black" stroke-width="1.5" stroke-linecap="round" stroke-linejoin="round"/>
<path d="M18.2011 10.8992C19.721 10.4937 20.8412 9.11057 20.8412 7.46469C20.8423 5.74743 19.6214 4.3135 17.9985 3.98151" stroke="black" stroke-width="1.5" stroke-linecap="round" stroke-linejoin="round"/>
<path d="M18.9155 14.7648C21.0692 14.7648 22.9087 16.2226 22.9087 17.5235C22.9087 18.2902 22.2749 19.0774 21.3108 19.3035" stroke="black" stroke-width="1.5" stroke-linecap="round" stroke-linejoin="round"/>
</svg>
