<svg width="16" height="16" viewBox="0 0 16 16" fill="none" xmlns="http://www.w3.org/2000/svg">
<path d="M12.6667 6.66665C12.4899 6.66665 12.3203 6.73688 12.1953 6.86191C12.0703 6.98693 12 7.1565 12 7.33331V9.58665L11.0134 8.59998C10.665 8.25434 10.1941 8.0604 9.70337 8.0604C9.21262 8.0604 8.74176 8.25434 8.39337 8.59998L7.92671 9.07331L6.27337 7.41331C5.92499 7.06768 5.45412 6.87373 4.96337 6.87373C4.47262 6.87373 4.00176 7.06768 3.65337 7.41331L2.66671 8.40665V4.66665C2.66671 4.48984 2.73695 4.32027 2.86197 4.19524C2.98699 4.07022 3.15656 3.99998 3.33337 3.99998H8.66671C8.84352 3.99998 9.01309 3.92974 9.13811 3.80472C9.26314 3.67969 9.33337 3.51012 9.33337 3.33331C9.33337 3.1565 9.26314 2.98693 9.13811 2.86191C9.01309 2.73688 8.84352 2.66665 8.66671 2.66665H3.33337C2.80294 2.66665 2.29423 2.87736 1.91916 3.25243C1.54409 3.62751 1.33337 4.13621 1.33337 4.66665V12.8133C1.33513 13.3043 1.53096 13.7747 1.87814 14.1219C2.22533 14.4691 2.69571 14.6649 3.18671 14.6666H11.48C11.6607 14.6652 11.8402 14.6383 12.0134 14.5866C12.3983 14.4787 12.7372 14.2474 12.9781 13.9283C13.2189 13.6091 13.3484 13.2198 13.3467 12.82V7.33331C13.3467 7.24463 13.3291 7.15684 13.2947 7.07507C13.2604 6.99331 13.2101 6.91921 13.1468 6.85713C13.0834 6.79505 13.0084 6.74622 12.9259 6.71351C12.8435 6.68081 12.7554 6.66487 12.6667 6.66665ZM3.33337 13.3333C3.15656 13.3333 2.98699 13.2631 2.86197 13.1381C2.73695 13.013 2.66671 12.8435 2.66671 12.6666V10.2866L4.59337 8.35998C4.69081 8.26309 4.82263 8.2087 4.96004 8.2087C5.09745 8.2087 5.22927 8.26309 5.32671 8.35998L10.3067 13.3333H3.33337ZM12 12.6666C11.9958 12.7957 11.9541 12.9208 11.88 13.0266L8.86671 9.99998L9.34004 9.53331C9.38784 9.48453 9.44489 9.44578 9.50785 9.41932C9.57081 9.39287 9.63841 9.37924 9.70671 9.37924C9.775 9.37924 9.84261 9.39287 9.90557 9.41932C9.96853 9.44578 10.0256 9.48453 10.0734 9.53331L12 11.4733V12.6666ZM14 2.66665H13.3334V1.99998C13.3334 1.82317 13.2631 1.6536 13.1381 1.52858C13.0131 1.40355 12.8435 1.33331 12.6667 1.33331C12.4899 1.33331 12.3203 1.40355 12.1953 1.52858C12.0703 1.6536 12 1.82317 12 1.99998V2.66665H11.3334C11.1566 2.66665 10.987 2.73688 10.862 2.86191C10.7369 2.98693 10.6667 3.1565 10.6667 3.33331C10.6667 3.51012 10.7369 3.67969 10.862 3.80472C10.987 3.92974 11.1566 3.99998 11.3334 3.99998H12V4.66665C12 4.84346 12.0703 5.01303 12.1953 5.13805C12.3203 5.26308 12.4899 5.33331 12.6667 5.33331C12.8435 5.33331 13.0131 5.26308 13.1381 5.13805C13.2631 5.01303 13.3334 4.84346 13.3334 4.66665V3.99998H14C14.1769 3.99998 14.3464 3.92974 14.4714 3.80472C14.5965 3.67969 14.6667 3.51012 14.6667 3.33331C14.6667 3.1565 14.5965 2.98693 14.4714 2.86191C14.3464 2.73688 14.1769 2.66665 14 2.66665Z" fill="#FF5530"/>
</svg>
