<svg width="26" height="26" viewBox="0 0 26 26" fill="none" xmlns="http://www.w3.org/2000/svg">
<path fill-rule="evenodd" clip-rule="evenodd" d="M12.9998 10.2733C14.4958 10.2733 15.7082 11.4835 15.7082 12.9767C15.7082 14.47 14.4958 15.6802 12.9998 15.6802C11.5039 15.6802 10.2915 14.47 10.2915 12.9767C10.2915 11.4835 11.5039 10.2733 12.9998 10.2733Z" stroke="black" stroke-width="1.5" stroke-linecap="round" stroke-linejoin="round"/>
<path fill-rule="evenodd" clip-rule="evenodd" d="M21.8485 7.84038V7.84038C21.108 6.55108 19.4687 6.10992 18.1874 6.85445C17.0729 7.5007 15.6801 6.69208 15.6801 5.39851C15.6801 3.91054 14.4795 2.70349 12.9996 2.70349V2.70349C11.5196 2.70349 10.3191 3.91054 10.3191 5.39851C10.3191 6.69208 8.92625 7.5007 7.81283 6.85445C6.53049 6.10992 4.89117 6.55108 4.15066 7.84038C3.41121 9.12967 3.84999 10.7779 5.13234 11.5213C6.24576 12.1687 6.24576 13.7848 5.13234 14.4321C3.84999 15.1767 3.41121 16.8249 4.15066 18.1131C4.89117 19.4024 6.53049 19.8435 7.81177 19.1001H7.81283C8.92625 18.4528 10.3191 19.2614 10.3191 20.5549V20.5549C10.3191 22.0429 11.5196 23.25 12.9996 23.25V23.25C14.4795 23.25 15.6801 22.0429 15.6801 20.5549V20.5549C15.6801 19.2614 17.0729 18.4528 18.1874 19.1001C19.4687 19.8435 21.108 19.4024 21.8485 18.1131C22.589 16.8249 22.1492 15.1767 20.8679 14.4321H20.8668C19.7534 13.7848 19.7534 12.1687 20.8679 11.5213C22.1492 10.7779 22.589 9.12967 21.8485 7.84038Z" stroke="black" stroke-width="1.5" stroke-linecap="round" stroke-linejoin="round"/>
</svg>
