<svg width="28" height="28" viewBox="0 0 28 28" fill="none" xmlns="http://www.w3.org/2000/svg">
<path d="M11.8141 4.73725C11.413 6.44982 11.3584 8.22532 11.6537 9.95928C11.9489 11.6932 12.5879 13.3507 13.5332 14.834C14.4784 16.3173 15.7108 17.5966 17.1578 18.5967C18.6047 19.5967 20.2371 20.2972 21.9588 20.657C21.0537 21.5936 19.9695 22.3388 18.7708 22.8483C17.5721 23.3579 16.2832 23.6214 14.9807 23.6232C14.86 23.6232 14.7375 23.6276 14.615 23.6232C12.3473 23.5434 10.1793 22.6716 8.48752 21.1594C6.79577 19.6472 5.68722 17.5902 5.35445 15.3456C5.02168 13.1011 5.48572 10.8109 6.66595 8.87291C7.84618 6.93494 9.66802 5.47164 11.815 4.73725H11.8141ZM13.1073 2.625C13.056 2.62517 13.0048 2.62986 12.9542 2.639C10.1688 3.13471 7.66515 4.64335 5.92543 6.87446C4.18571 9.10558 3.33287 11.9014 3.53111 14.7237C3.72936 17.546 4.96467 20.1951 6.99922 22.1611C9.03376 24.1271 11.7237 25.2709 14.5511 25.3724C14.6946 25.3776 14.8381 25.3724 14.9798 25.3724C16.8164 25.3736 18.6263 24.9325 20.2564 24.0865C21.8865 23.2404 23.2889 22.0143 24.345 20.5117C24.4305 20.3822 24.4805 20.2325 24.4898 20.0776C24.4991 19.9226 24.4674 19.768 24.398 19.6292C24.3285 19.4903 24.2237 19.3723 24.0942 19.2868C23.9646 19.2014 23.8148 19.1515 23.6598 19.1424C21.9118 18.989 20.2225 18.4357 18.7224 17.5252C17.2223 16.6148 15.9517 15.3717 15.0086 13.8918C14.0656 12.412 13.4755 10.7352 13.2839 8.99094C13.0923 7.24669 13.3043 5.48174 13.9036 3.8325C13.9546 3.70049 13.9733 3.55821 13.9581 3.41751C13.943 3.27681 13.8944 3.14176 13.8165 3.02362C13.7386 2.90548 13.6336 2.80767 13.5103 2.73833C13.3869 2.66899 13.2488 2.63014 13.1073 2.625Z" fill="black"/>
</svg>
