<svg width="12" height="9" viewBox="0 0 12 9" fill="none" xmlns="http://www.w3.org/2000/svg">
<path fill-rule="evenodd" clip-rule="evenodd" d="M0 4.15416C0 4.03176 0.04515 3.91438 0.125518 3.82783C0.205885 3.74128 0.314887 3.69265 0.428544 3.69265H10.5362L7.83893 0.78884C7.75846 0.702181 7.71325 0.584646 7.71325 0.462092C7.71325 0.339538 7.75846 0.222003 7.83893 0.135344C7.9194 0.0486844 8.02854 2.88748e-09 8.14234 0C8.25614 -2.88748e-09 8.36528 0.0486844 8.44575 0.135344L11.8741 3.82742C11.914 3.87029 11.9457 3.92121 11.9673 3.97728C11.9889 4.03335 12 4.09346 12 4.15416C12 4.21487 11.9889 4.27498 11.9673 4.33104C11.9457 4.38711 11.914 4.43804 11.8741 4.48091L8.44575 8.17298C8.36528 8.25964 8.25614 8.30833 8.14234 8.30833C8.02854 8.30833 7.9194 8.25964 7.83893 8.17298C7.75846 8.08633 7.71325 7.96879 7.71325 7.84624C7.71325 7.72368 7.75846 7.60615 7.83893 7.51949L10.5362 4.61567H0.428544C0.314887 4.61567 0.205885 4.56705 0.125518 4.4805C0.04515 4.39395 0 4.27656 0 4.15416Z" fill="black"/>
</svg>
