<svg width="22" height="24" viewBox="0 0 22 24" fill="none" xmlns="http://www.w3.org/2000/svg">
<path d="M13.7498 19.4166V20.3333C13.7498 21.0626 13.4601 21.7621 12.9444 22.2778C12.4287 22.7936 11.7292 23.0833 10.9998 23.0833C10.2705 23.0833 9.57102 22.7936 9.05529 22.2778C8.53957 21.7621 8.24984 21.0626 8.24984 20.3333V19.4166M3.6665 19.4166V10.25C3.6665 8.30504 4.43912 6.43978 5.81439 5.06451C7.18965 3.68924 9.05492 2.91663 10.9998 2.91663C12.9448 2.91663 14.81 3.68924 16.1853 5.06451C17.5606 6.43978 18.3332 8.30504 18.3332 10.25V19.4166H3.6665ZM0.916504 19.4166H21.0832H0.916504Z" stroke="black" stroke-width="1.5"/>
<circle cx="18" cy="4" r="4" fill="#F3520D"/>
</svg>
