<svg width="20" height="20" viewBox="0 0 20 20" fill="none" xmlns="http://www.w3.org/2000/svg">
<path d="M1.875 2.32377V17.6753C1.8751 17.7086 1.88504 17.7412 1.90356 17.7689C1.92208 17.7965 1.94836 17.8181 1.9791 17.8309C2.00985 17.8438 2.04369 17.8472 2.07638 17.8408C2.10908 17.8345 2.13917 17.8186 2.16289 17.7953L10.1562 9.99994L2.16289 2.20385C2.13917 2.18046 2.10908 2.1646 2.07638 2.15825C2.04369 2.1519 2.00985 2.15535 1.9791 2.16816C1.94836 2.18096 1.92208 2.20256 1.90356 2.23025C1.88504 2.25793 1.8751 2.29046 1.875 2.32377Z" fill="black"/>
<path d="M13.5078 6.79687L3.48513 1.27499L3.47888 1.27148C3.30623 1.17773 3.14216 1.41132 3.28357 1.54726L11.1402 9.05976L13.5078 6.79687Z" fill="black"/>
<path d="M3.28439 18.4527C3.14221 18.5887 3.30627 18.8223 3.47971 18.7285L3.48596 18.725L13.5078 13.2031L11.1403 10.9395L3.28439 18.4527Z" fill="black"/>
<path d="M17.5539 9.02346L14.7551 7.48206L12.1234 10L14.7551 12.5168L17.5539 10.9766C18.3152 10.5559 18.3152 9.44416 17.5539 9.02346Z" fill="black"/>
</svg>
